<svg id="hellojason-logo" xmlns="http://www.w3.org/2000/svg" width="53.76" height="53.76" viewBox="0 0 40.6 40.6"><defs><style>.cls-1{fill:#fbac2d}</style></defs><path class="cls-1" d="M9.3 13.1a4.11 4.11 0 012.8-.7h17.8a4.42 4.42 0 012.9.7 3.39 3.39 0 01.8 2.5v.5h-5.2a1.43 1.43 0 00-1.4 1.4v.9q3.75 0 4.8.9c.7.6.9 2.9.9 2.9a28.1 28.1 0 01.1 2.9V29a1.43 1.43 0 01-1.4 1.4h-8A1.43 1.43 0 0122 29v-.9c0-1.9.2-3.1.7-3.6a3.37 3.37 0 011.7-.6 1.42 1.42 0 001.4-1.2 1.33 1.33 0 00-1.4-1.1h-7.5a1.43 1.43 0 00-1.4 1.4v.7c1.6 0 2.7.2 3.2.7a5.14 5.14 0 01.6 2.3 23.48 23.48 0 01.1 2.6 1.33 1.33 0 01-1.4 1.1h-7A1.43 1.43 0 019.6 29v-5.5c0-2.2.3-3.5.8-4.1a4.15 4.15 0 011.8-.7 15.26 15.26 0 011.8-.1 1.23 1.23 0 00.4-1.2 1.33 1.33 0 00-1.4-1.2H8.5v-.7a2.92 2.92 0 01.8-2.4" transform="translate(-.7 -.7)"/><path class="cls-1" d="M21 3.4A17.6 17.6 0 113.4 21 17.63 17.63 0 0121 3.4m0-2.7A20.3 20.3 0 1041.3 21 20.31 20.31 0 0021 .7z" transform="translate(-.7 -.7)"/></svg>