<svg xmlns="http://www.w3.org/2000/svg" viewBox="-57 -111 497 1014"><path d="M438.5 104H437V-36c0-41.4-33.6-75-75-75H21c-41.4 0-75 33.6-75 75v53h-1.5c-.8 0-1.5.7-1.5 1.5v38c0 .8.7 1.5 1.5 1.5h1.5v46h-1.5c-.8 0-1.5.7-1.5 1.5v72c0 .8.7 1.5 1.5 1.5h1.5v17h-1.5c-.8 0-1.5.7-1.5 1.5v72c0 .8.7 1.5 1.5 1.5h1.5v557c0 41.4 33.6 75 75 75h341c41.4 0 75-33.6 75-75V179h1.5c.8 0 1.5-.7 1.5-1.5v-72c0-.8-.7-1.5-1.5-1.5zM156-51h72c2.2 0 4 1.8 4 4s-1.8 4-4 4h-72c-2.2 0-4-1.8-4-4s1.8-4 4-4zm251 829H-24V12h431v766z" fill="#aaa"/></svg>