<svg version="1" xmlns="http://www.w3.org/2000/svg" width="346.667" height="346.667" viewBox="0 0 260.000000 260.000000"><path d="M104.5 2C78.3 7.2 57.2 18.6 37.9 37.9 12.2 63.6 0 93.2 0 129.5s12.2 65.9 37.9 91.6c25.7 25.7 55.3 37.9 91.6 37.9s65.9-12.2 91.6-37.9c25.7-25.7 37.9-55.3 37.9-91.6s-12.2-65.9-37.9-91.6c-19.6-19.6-40.6-30.8-67.3-36-13.1-2.5-36.5-2.5-49.3.1zM200 76.2c6.4 3 10 9.2 10 17.3V98h-36.2l-2.9 2.9c-2.3 2.4-2.9 3.8-2.9 7.4v4.4l9.3.6c5 .4 11.5 1.3 14.3 2.1 10.9 3.3 12.5 8.2 13.1 41.6.3 16.3.1 25.4-.6 27.3-2 5.1-5.3 5.7-33.6 5.7-35.4 0-35 .2-34.3-18.9.6-14.6 2-18.4 8-21.1 2.4-1.1 5.3-2 6.5-2 8.6-.1 12.5-9.8 5.3-13.5-2.4-1.2-7.5-1.5-27.8-1.5-15.6 0-26.1.4-28.1 1.1-3.5 1.2-6.1 5.3-6.1 9.7 0 2.9 0 2.9 7.4 3.5 14 1 16.4 4.5 17.3 24 .7 13.7-.1 16.1-5.6 17.8-2.2.6-12.6.9-27.3.7-23.6-.3-23.6-.3-26.3-2.8l-2.6-2.5.3-28.5c.3-26.1.5-28.8 2.3-32.5 2.6-5.2 8.2-8.1 17.8-9 3.9-.4 7.8-1.2 8.5-1.7 2.2-1.8 1.5-8.6-1.3-11.3-2.4-2.4-2.8-2.5-18.3-2.5h-16l-.6-3.4c-.8-4.4.9-11.5 3.7-15 1.3-1.6 4.5-3.6 7.7-4.7 5.2-1.8 8.7-1.9 70.5-1.6 58.3.2 65.4.4 68.5 1.9z"/></svg>