<svg version="1.1" id="Layer_1" xmlns="http://www.w3.org/2000/svg" x="0" y="0" viewBox="0 0 792 612" xml:space="preserve"><style>.st0{fill:#153f6a}</style><path class="st0" d="M303.8 257.4c1.2 3.8-2.6 8.4-8.6 10.3-6 2-11.8.5-13.1-3.3-1.2-3.8 2.6-8.4 8.6-10.3 6.1-1.9 11.9-.5 13.1 3.3zM336.7 253.1c1.4 4.2-2.9 9.3-9.6 11.5-6.6 2.2-13.1.6-14.5-3.6-1.4-4.2 2.9-9.3 9.6-11.5 6.6-2.2 13.1-.6 14.5 3.6z"/><ellipse transform="rotate(-18.121 264.207 265.518)" class="st0" cx="264.2" cy="265.5" rx="11.4" ry="7.2"/><ellipse transform="rotate(-18.121 300.362 240.34)" class="st0" cx="300.3" cy="240.3" rx="9.7" ry="6.1"/><ellipse transform="rotate(-18.121 235.934 270.226)" class="st0" cx="235.9" cy="270.2" rx="10.3" ry="6.4"/><ellipse transform="rotate(-18.121 249.493 283.19)" class="st0" cx="249.4" cy="283.2" rx="10.3" ry="6.4"/><path class="st0" d="M220.6 275.2c.9 2.9-2 6.4-6.6 7.9s-9 .4-10-2.5c-.9-2.9 2-6.4 6.6-7.9s9.1-.4 10 2.5zM231.8 289.8c.9 2.9-2 6.4-6.6 7.9s-9 .4-10-2.5c-.9-2.9 2-6.4 6.6-7.9 4.5-1.5 9-.4 10 2.5z"/><ellipse transform="rotate(-18.132 234.728 308.51)" class="st0" cx="234.7" cy="308.5" rx="8.7" ry="5.5"/><path class="st0" d="M225.7 326.1c.8 2.6-1.8 5.8-5.9 7.1-4.1 1.4-8.1.3-9-2.2-.8-2.6 1.8-5.8 5.9-7.1 4.1-1.4 8.1-.4 9 2.2zM252 323.1c.8 2.6-1.8 5.8-5.9 7.1-4.1 1.3-8.1.3-9-2.2-.8-2.6 1.8-5.8 5.9-7.1 4.1-1.4 8.1-.4 9 2.2zM212.5 349.9c.8 2.3-1.6 5.1-5.3 6.3-3.7 1.2-7.2.3-8-2-.8-2.3 1.6-5.1 5.3-6.3 3.7-1.2 7.2-.3 8 2z"/><ellipse transform="rotate(-18.132 251.197 347.647)" class="st0" cx="251.2" cy="347.7" rx="8" ry="6.7"/><path class="st0" d="M210.2 262.3c1.1 2.3-.9 5.6-4.6 7.4-3.7 1.8-7.6 1.4-8.7-.9-1.1-2.3.9-5.6 4.6-7.4 3.6-1.9 7.5-1.5 8.7.9z"/><ellipse transform="rotate(-26.186 189.95 257.84)" class="st0" cx="190" cy="257.9" rx="5.9" ry="3.7"/><path class="st0" d="M180.5 249.1c.8 1.6-.6 3.9-3.2 5.2-2.6 1.3-5.3 1-6.1-.6-.8-1.6.6-3.9 3.2-5.2 2.6-1.3 5.3-1 6.1.6zM195.8 285c.8 2.4-1.7 5.5-5.6 6.7-3.9 1.3-7.7.3-8.5-2.1-.8-2.4 1.7-5.5 5.6-6.7 3.9-1.3 7.7-.3 8.5 2.1zM176.5 293.6c.7 2.1-1.4 4.6-4.8 5.7-3.3 1.1-6.5.3-7.2-1.8-.7-2.1 1.4-4.6 4.8-5.7 3.3-1.1 6.5-.3 7.2 1.8z"/><g><path class="st0" d="M264.9 320v-22.3h5.4V320h-5.4zm0-24.9v-5h5.3v5h-5.3zM301 320v-12.3c0-4.8-2.4-5.7-4.5-5.5-2.9.2-4.2 2.2-4.2 5.4V320h-5.5v-12.5c0-3.8-2-5.4-4.5-5.4-2.6 0-4.2 1.5-4.2 5.3V320h-5.5v-22.3h5v2l.3-.4c1.1-1.6 3-2.3 5.3-2.4 3-.1 5.2 1 6.8 3.5 2.1-2.7 4.8-3.8 8.3-3.5 4.8.5 8.1 3.7 8.1 10v13H301zM336.7 320v-12.3c0-4.8-2.4-5.7-4.5-5.5-2.9.2-4.2 2.2-4.2 5.4V320h-5.5v-12.5c0-3.8-2-5.4-4.5-5.4-2.6 0-4.2 1.5-4.2 5.3V320h-5.5v-22.3h5v2l.3-.4c1.1-1.6 3-2.3 5.3-2.4 3-.1 5.2 1 6.8 3.5 2.1-2.7 4.8-3.8 8.3-3.5 4.8.5 8.1 3.7 8.1 10v13h-5.4zM367 311.2h-17.3l.2.6c1 2.5 3.2 3.6 5.9 3.7 1.9 0 3.5-.8 4.5-1.6l.3-.3h5.8l-.3.6c-1.1 3-5.6 6.4-10.2 6.4-6.4.1-11.7-5.1-11.8-11.5-.1-6.6 5.2-12.2 11.8-12.1 7.5.2 12.1 6.9 11.2 13.1l-.1 1.1zm-5.3-4.9c-.5-1.9-3-4.1-5.9-4.1-2.8 0-5.2 1.8-6.1 4l-.2.4h12.2v-.3zM383.2 320v-12.2c0-3.8-1.9-5.7-4.3-5.7-2.8 0-4.7 1.7-4.7 5.5V320h-5.3v-22.3h4.9v2l.4-.4c1.3-1.4 3.3-2.2 5.7-2.3 4.8 0 8.7 3.9 8.7 9v14h-5.4zM398.6 320.7c-4.3.4-8.2-2.8-8.5-7.2v-.5h5.4l.1.3c.2 1 1.1 2 2.4 2.2 1.3.1 2.8-.6 2.9-1.8.1-2.7-3-2.7-6-4-2.5-1.1-4-3.1-3.9-5.9.1-3.9 3.5-6.8 7.4-6.7 3.7 0 6.7 2.6 7.2 6.3l.1.5h-5.2l-.1-.3c-.4-.9-1.2-1.4-2.1-1.4-1.2 0-2.1.9-2.1 2 .1 1.9 3 1.9 5.1 2.8 3.1 1.3 4.8 2.7 4.9 5.9 0 4.1-3 7.4-7.6 7.8zM431.3 311.2H414l.2.6c1 2.5 3.2 3.6 5.9 3.7 1.9 0 3.5-.8 4.5-1.6l.3-.3h5.8l-.3.6c-1.1 3-5.6 6.4-10.2 6.4-6.4.1-11.7-5.1-11.8-11.5-.1-6.6 5.2-12.2 11.8-12.1 7.5.2 12.1 6.9 11.2 13.1l-.1 1.1zm-5.2-4.9c-.5-1.9-3-4.1-5.9-4.1-2.8 0-5.2 1.8-6.1 4l-.2.4h12.2v-.3zM450.3 320v-12.8c0-3.7-3.1-6.8-6.8-6.8-3.5.1-6.6 2.4-6.6 6.2V320h-3.1v-22h2.7v3.1c1.8-2.4 3.9-3.5 6.8-3.6 5.6-.2 10 4.3 10 10V320h-3zM457.4 310c.4 4.4 4.1 7.7 8.6 7.6 3.4 0 6-1.7 7.5-4.8h3.1c-1.6 4.8-6 7.7-10.6 7.8-6 .1-11.4-5.1-11.5-11.4-.1-6.5 5.4-12.1 12-11.8 5.9.3 10.8 5.6 10.8 11v1.6h-19.9zm8.5-9.6c-4.3-.1-7.7 2.8-8.5 6.9h16.8c-.8-4.1-4.1-6.9-8.3-6.9z"/><path class="st0" d="M483.5 300.7V320h-3v-19.2H476V298h4.5v-7.7h3v7.7h5v2.7h-5zM514.1 320h-3.4l-4.8-14.5-4.5 14.5H498l-8.3-22h3.1l6.8 18.3 5.1-15.6h2.5l5 15.5 6.9-18.2h3.2l-8.2 22zM532.5 320.5c-6.1-.2-10.9-5.3-10.9-11.5 0-6.3 5.2-11.8 11.6-11.5 6.1.2 11 5.3 11 11.5-.1 6.3-5.4 11.7-11.7 11.5zm.4-20.1c-4.7 0-8.4 3.8-8.5 8.4-.1 4.6 3.5 8.6 8 8.8 4.9.2 8.8-4.1 8.7-8.9 0-4.5-3.7-8.3-8.2-8.3zM552.2 301.6c-1.3 1.1-2.5 2.1-2.5 5.2V320h-3.1v-22h2.7v3.1c.7-1.3 1.7-2.2 2.7-2.7 1.2-.6 2.1-.9 3.4-.8v2.9c-.9.1-2.1.3-3.2 1.1zM571.1 320l-7.1-8.6-3.5 4.4v4.2h-3.2v-29.7h3.1v20.9l10.2-13.2h3.7l-8.4 11.1L575 320h-3.9zM582.6 320.5c-3.7-.3-6.5-3.4-6.5-7.1h3.1v.7c0 1.4 1.9 3.5 3.8 3.5 2.5-.1 3.9-1.6 3.9-3.7 0-1.9-1.3-3.3-3.2-3.8l-2.6-.8c-2.6-.8-4.1-2.8-4.2-5.5-.2-3.4 2.7-6.1 6.1-6.3 2.9-.2 6 2.2 6.3 5.3v.6h-3.1v-.5c0-1.6-1.6-2.6-3.3-2.6-1.6 0-3 1.3-3.1 3-.1 1.7 1.2 2.9 2.8 3.4l2.5.9c2.8.9 4.5 2.9 4.7 5.9.5 3.9-3.3 7.3-7.2 7z"/></g></svg>