<svg xmlns="http://www.w3.org/2000/svg" width="500" height="500" version="1.0"><path d="M0 0h500v500H0V0z" fill="#0c479d"/><path d="M0 468.75C0 486.009 13.991 500 31.25 500h437.5c17.259 0 31.25-13.991 31.25-31.25V31.25C500 13.991 486.009 0 468.75 0H31.25C13.991 0 0 13.991 0 31.25z" fill="#fff"/><path d="M484.375 31.25c0-8.629-6.995-15.625-15.625-15.625H31.25c-8.63 0-15.625 6.996-15.625 15.625v437.5c0 8.629 6.995 15.625 15.625 15.625h437.5c8.63 0 15.625-6.996 15.625-15.625z" fill="#0c479d"/><path d="M93.75 93.75h312.5v312.5H93.75V93.75z" fill="#fff"/><path d="M331.772 227.084h-27.604v45.833h27.604c32.504 0 58.853 26.35 58.853 58.855 0 32.504-26.35 58.853-58.853 58.853-32.506 0-58.855-26.35-58.855-58.853v-27.604h-45.833v27.603c0 32.505-26.351 58.854-58.855 58.854-32.503 0-58.854-26.35-58.854-58.853 0-32.505 26.35-58.855 58.854-58.855h27.605v-45.833h-27.605c-32.503 0-58.854-26.35-58.854-58.856 0-32.503 26.35-58.853 58.854-58.853s58.855 26.35 58.855 58.853v27.605h45.833v-27.605c0-32.503 26.35-58.853 58.855-58.853 32.504 0 58.853 26.35 58.853 58.853 0 32.506-26.35 58.856-58.853 58.856z"/><path d="M304.168 195.833v-27.605c0-15.245 12.36-27.604 27.604-27.604 15.245 0 27.603 12.359 27.603 27.604 0 15.246-12.358 27.605-27.603 27.605h-27.604zM304.168 331.772c0 15.244 12.36 27.603 27.604 27.603 15.245 0 27.603-12.36 27.603-27.603 0-15.245-12.358-27.604-27.603-27.604h-27.604v27.604zM195.834 331.772v-27.604h-27.605a27.603 27.603 0 00-19.519 47.122 27.606 27.606 0 0047.124-19.519zM195.834 168.228c0-15.245-12.36-27.604-27.605-27.604-15.246 0-27.604 12.359-27.604 27.604 0 15.246 12.358 27.605 27.604 27.605h27.605v-27.605zM227.084 272.917v-45.833h45.833v45.833h-45.833z" fill="#fff"/></svg>